<mxfile host="Electron" modified="2024-09-05T13:22:27.847Z" agent="Mozilla/5.0 (Windows NT 10.0; Win64; x64) AppleWebKit/537.36 (KHTML, like Gecko) draw.io/24.2.5 Chrome/120.0.6099.109 Electron/28.1.0 Safari/537.36" etag="YD9O0hmOLCHvUl1_qvj9" version="24.2.5" type="device">
  <diagram id="c0bZU-AF1Oya6xWdx9IP" name="connect(BaseModelクラス)">
    <mxGraphModel dx="1050" dy="621" grid="1" gridSize="10" guides="1" tooltips="1" connect="1" arrows="1" fold="1" page="1" pageScale="1" pageWidth="827" pageHeight="1169" math="0" shadow="0">
      <root>
        <mxCell id="0" />
        <mxCell id="1" parent="0" />
        <mxCell id="m4_Flp5jzZngl41irHX--1" value="" style="edgeStyle=orthogonalEdgeStyle;rounded=0;orthogonalLoop=1;jettySize=auto;html=1;" parent="1" source="m4_Flp5jzZngl41irHX--2" target="m4_Flp5jzZngl41irHX--6" edge="1">
          <mxGeometry relative="1" as="geometry" />
        </mxCell>
        <mxCell id="m4_Flp5jzZngl41irHX--2" value="開始" style="strokeWidth=2;html=1;shape=mxgraph.flowchart.start_1;whiteSpace=wrap;" parent="1" vertex="1">
          <mxGeometry x="378.5" y="310" width="70" height="40" as="geometry" />
        </mxCell>
        <mxCell id="m4_Flp5jzZngl41irHX--3" value="" style="edgeStyle=orthogonalEdgeStyle;rounded=0;orthogonalLoop=1;jettySize=auto;html=1;" parent="1" edge="1">
          <mxGeometry relative="1" as="geometry">
            <mxPoint x="415.5" y="480" as="sourcePoint" />
            <mxPoint x="415.5" y="560" as="targetPoint" />
          </mxGeometry>
        </mxCell>
        <mxCell id="SVAvF6IqGkcnw5V41yyH-3" value="" style="edgeStyle=orthogonalEdgeStyle;rounded=0;orthogonalLoop=1;jettySize=auto;html=1;" parent="1" source="m4_Flp5jzZngl41irHX--5" target="SVAvF6IqGkcnw5V41yyH-2" edge="1">
          <mxGeometry relative="1" as="geometry" />
        </mxCell>
        <mxCell id="m4_Flp5jzZngl41irHX--5" value="self.cursorにself.connから&lt;br&gt;cursorオブジェクトを取得し、代入" style="rounded=1;whiteSpace=wrap;html=1;" parent="1" vertex="1">
          <mxGeometry x="318.5" y="560" width="200" height="60" as="geometry" />
        </mxCell>
        <mxCell id="m4_Flp5jzZngl41irHX--6" value="self.connにsample.dbに接続した&lt;br&gt;オブジェクトを代入" style="rounded=1;whiteSpace=wrap;html=1;" parent="1" vertex="1">
          <mxGeometry x="309" y="420" width="209" height="60" as="geometry" />
        </mxCell>
        <mxCell id="SVAvF6IqGkcnw5V41yyH-1" value="終了" style="strokeWidth=2;html=1;shape=mxgraph.flowchart.start_1;whiteSpace=wrap;" parent="1" vertex="1">
          <mxGeometry x="383.5" y="840" width="70" height="40" as="geometry" />
        </mxCell>
        <mxCell id="SVAvF6IqGkcnw5V41yyH-4" value="" style="edgeStyle=orthogonalEdgeStyle;rounded=0;orthogonalLoop=1;jettySize=auto;html=1;" parent="1" source="SVAvF6IqGkcnw5V41yyH-2" target="SVAvF6IqGkcnw5V41yyH-1" edge="1">
          <mxGeometry relative="1" as="geometry" />
        </mxCell>
        <mxCell id="SVAvF6IqGkcnw5V41yyH-2" value="DBから受け取ったデータを&lt;div&gt;辞書型で取得できるように設定&lt;/div&gt;" style="rounded=1;whiteSpace=wrap;html=1;" parent="1" vertex="1">
          <mxGeometry x="318.5" y="700" width="200" height="60" as="geometry" />
        </mxCell>
        <mxCell id="NWEEu5gIekczSpsdNTfF-1" value="&lt;b style=&quot;&quot;&gt;&lt;font style=&quot;&quot;&gt;&lt;font style=&quot;font-size: 18px;&quot;&gt;初期化メソッド&lt;/font&gt;&lt;/font&gt;&lt;/b&gt;&lt;div&gt;&lt;font style=&quot;font-size: 14px;&quot;&gt;クラス：BaseModelクラス&lt;/font&gt;&lt;/div&gt;&lt;div&gt;&lt;div style=&quot;font-size: 14px;&quot;&gt;&lt;font style=&quot;font-size: 14px;&quot;&gt;継承： ABC&lt;/font&gt;&lt;/div&gt;&lt;/div&gt;&lt;div style=&quot;font-size: 14px;&quot;&gt;&lt;font style=&quot;font-size: 14px;&quot;&gt;&lt;br&gt;&lt;/font&gt;&lt;/div&gt;&lt;div style=&quot;font-size: 14px;&quot;&gt;&lt;font style=&quot;font-size: 14px;&quot;&gt;※ABCクラスを継承し、抽象クラスとしています。&lt;br&gt;&lt;/font&gt;&lt;/div&gt;&lt;div style=&quot;font-size: 14px;&quot;&gt;&lt;font style=&quot;font-size: 14px;&quot;&gt;&lt;br&gt;&lt;/font&gt;&lt;/div&gt;&lt;div style=&quot;font-size: 14px;&quot;&gt;&lt;font style=&quot;font-size: 14px;&quot;&gt;クラスの役割&lt;/font&gt;&lt;/div&gt;&lt;div style=&quot;font-size: 14px;&quot;&gt;モデルの親クラス。&lt;/div&gt;&lt;div style=&quot;font-size: 14px;&quot;&gt;DB連携用のメソッド保持。&lt;/div&gt;&lt;div style=&quot;font-size: 14px;&quot;&gt;&lt;br&gt;&lt;/div&gt;&lt;div style=&quot;font-size: 14px;&quot;&gt;メソッドの役割&lt;/div&gt;&lt;div style=&quot;font-size: 14px;&quot;&gt;DB接続を確立するメソッド&lt;/div&gt;" style="text;html=1;align=left;verticalAlign=top;whiteSpace=wrap;rounded=0;fillColor=#f5f5f5;fontColor=#333333;strokeColor=#666666;" vertex="1" parent="1">
          <mxGeometry x="20" y="30" width="340" height="220" as="geometry" />
        </mxCell>
      </root>
    </mxGraphModel>
  </diagram>
</mxfile>
